<svg version="1.1" xmlns="http://www.w3.org/2000/svg" xmlns:xlink="http://www.w3.org/1999/xlink" width="22" height="35"><defs/><g><path fill="rgb(0,142,214)" stroke="none" paint-order="stroke fill markers" fill-rule="evenodd" d=" M 17.00306510925293 3.9996895790100098 C 17.55487060546875 3.9996895790100098 18.002992630004883 4.447873651981354 18.002992630004883 4.999970734119415 C 18.002992630004883 4.999970734119415 18.002992630004883 30.999700486660004 18.002992630004883 30.999700486660004 C 18.002992630004883 31.551797568798065 17.55487060546875 31.999665796756744 17.00306510925293 31.999665796756744 C 17.00306510925293 31.999665796756744 4.994150161743164 31.999665796756744 4.994150161743164 31.999665796756744 C 4.442344665527344 31.999665796756744 3.9941368103027344 31.551797568798065 3.9941368103027344 30.999700486660004 C 3.9941368103027344 30.999700486660004 3.9941368103027344 4.999970734119415 3.9941368103027344 4.999970734119415 C 3.9941368103027344 4.447873651981354 4.442344665527344 3.9996895790100098 4.994150161743164 3.9996895790100098 C 4.994150161743164 3.9996895790100098 17.00306510925293 3.9996895790100098 17.00306510925293 3.9996895790100098 C 17.00306510925293 3.9996895790100098 17.00306510925293 3.9996895790100098 17.00306510925293 3.9996895790100098 M 17.00306510925293 1.9997589588165283 C 17.00306510925293 1.9997589588165283 4.994150161743164 1.9997589588165283 4.994150161743164 1.9997589588165283 C 3.3368453979492188 1.9997589588165283 1.994110107421875 3.3427319526672363 1.994110107421875 4.999970734119415 C 1.994110107421875 4.999970734119415 1.994110107421875 30.999700486660004 1.994110107421875 30.999700486660004 C 1.994110107421875 32.65693926811218 3.3368453979492188 33.99991226196289 4.994150161743164 33.99991226196289 C 4.994150161743164 33.99991226196289 17.00306510925293 33.99991226196289 17.00306510925293 33.99991226196289 C 18.660198211669922 33.99991226196289 20.003019332885742 32.65693926811218 20.003019332885742 30.999700486660004 C 20.003019332885742 30.999700486660004 20.003019332885742 4.999970734119415 20.003019332885742 4.999970734119415 C 20.003019332885742 3.3427319526672363 18.660198211669922 1.9997589588165283 17.00306510925293 1.9997589588165283 C 17.00306510925293 1.9997589588165283 17.00306510925293 1.9997589588165283 17.00306510925293 1.9997589588165283 Z M 9.0047607421875 28.999454021453857 C 9.0047607421875 30.101121425628662 9.89765739440918 30.994646966457367 10.999895095825195 30.994646966457367 C 12.102218627929688 30.994646966457367 12.99502944946289 30.101121425628662 12.99502944946289 28.999454021453857 C 12.99502944946289 27.899049997329712 12.102218627929688 27.005208611488342 10.999895095825195 27.005208611488342 C 9.89765739440918 27.005208611488342 9.0047607421875 27.899049997329712 9.0047607421875 28.999454021453857 Z M 8.999954223632812 4.999970734119415 C 8.999954223632812 4.999970734119415 12.999921798706055 4.999970734119415 12.999921798706055 4.999970734119415 C 13.552242279052734 4.999970734119415 13.999935150146484 5.44752311706543 13.999935150146484 5.999936044216156 C 13.999935150146484 6.5520331263542175 13.552242279052734 6.999901354312897 12.999921798706055 6.999901354312897 C 12.999921798706055 6.999901354312897 8.999954223632812 6.999901354312897 8.999954223632812 6.999901354312897 C 8.447633743286133 6.999901354312897 7.999940872192383 6.5520331263542175 7.999940872192383 5.999936044216156 C 7.999940872192383 5.44752311706543 8.447633743286133 4.999970734119415 8.999954223632812 4.999970734119415 Z"/></g></svg>