<svg version="1.1" xmlns="http://www.w3.org/2000/svg" xmlns:xlink="http://www.w3.org/1999/xlink" width="36" height="25"><defs/><g><path fill="rgb(0,142,214)" stroke="none" paint-order="stroke fill markers" fill-rule="evenodd" d=" M 31.49988555908203 3.0149925351142883 C 32.05169105529785 3.0149925351142883 31.999935150146484 2.9635097980499268 31.999935150146484 3.5149751901626587 C 31.999935150146484 3.5149751901626587 31.999935150146484 19.514735996723175 31.999935150146484 19.514735996723175 C 31.999935150146484 20.066517233848572 32.05169105529785 21.014683961868286 31.49988555908203 21.014683961868286 C 31.49988555908203 21.014683961868286 5.499881744384766 21.014683961868286 5.499881744384766 21.014683961868286 C 4.948677062988281 21.014683961868286 3.9999046325683594 20.066517233848572 3.9999046325683594 19.514735996723175 C 3.9999046325683594 19.514735996723175 3.9999046325683594 3.5149751901626587 3.9999046325683594 3.5149751901626587 C 3.9999046325683594 2.9635097980499268 4.948677062988281 3.0149925351142883 5.499881744384766 3.0149925351142883 C 5.499881744384766 3.0149925351142883 30.999921798706055 3.0149925351142883 30.999921798706055 3.0149925351142883 C 30.999921798706055 3.0149925351142883 31.49988555908203 3.0149925351142883 31.49988555908203 3.0149925351142883 M 31.49988555908203 1.014746069908142 C 31.49988555908203 1.014746069908142 5.499881744384766 1.014746069908142 5.499881744384766 1.014746069908142 C 3.8431777954101562 1.014746069908142 1.9999637603759766 1.8580522537231445 1.9999637603759766 3.5149751901626587 C 1.9999637603759766 3.5149751901626587 1.9999637603759766 19.514735996723175 1.9999637603759766 19.514735996723175 C 1.9999637603759766 21.171974778175354 3.8431777954101562 23.014930427074432 5.499881744384766 23.014930427074432 C 5.499881744384766 23.014930427074432 31.49988555908203 23.014930427074432 31.49988555908203 23.014930427074432 C 33.1571044921875 23.014930427074432 33.99987602233887 21.171974778175354 33.99987602233887 19.514735996723175 C 33.99987602233887 19.514735996723175 33.99987602233887 3.5149751901626587 33.99987602233887 3.5149751901626587 C 33.99987602233887 1.8580522537231445 33.1571044921875 1.014746069908142 31.49988555908203 1.014746069908142 C 31.49988555908203 1.014746069908142 31.49988555908203 1.014746069908142 31.49988555908203 1.014746069908142 Z M 17.999919891357422 16.108663380146027 C 17.76654624938965 16.108663380146027 17.5330867767334 16.027491211891174 17.345117568969727 15.86451518535614 C 17.345117568969727 15.86451518535614 2.3450889587402344 3.864299774169922 2.3450889587402344 3.864299774169922 C 1.9276084899902344 3.5026572346687317 1.8827190399169922 2.870967209339142 2.2440662384033203 2.4537359476089478 C 2.6063575744628906 2.035872995853424 3.2377281188964844 1.991338849067688 3.654693603515625 2.3526655435562134 C 3.654693603515625 2.3526655435562134 17.999919891357422 13.785307466983795 17.999919891357422 13.785307466983795 C 17.999919891357422 13.785307466983795 32.34463119506836 2.3526655435562134 32.34463119506836 2.3526655435562134 C 32.7615966796875 1.9922863841056824 33.39253807067871 2.0352413058280945 33.75577354431152 2.4537359476089478 C 34.11712074279785 2.870967209339142 34.07223129272461 3.5026572346687317 33.65517997741699 3.864299774169922 C 33.65517997741699 3.864299774169922 18.654722213745117 15.86451518535614 18.654722213745117 15.86451518535614 C 18.466753005981445 16.027491211891174 18.233293533325195 16.108663380146027 17.999919891357422 16.108663380146027 Z"/></g></svg>