<svg version="1.1" xmlns="http://www.w3.org/2000/svg" xmlns:xlink="http://www.w3.org/1999/xlink" width="27" height="35"><defs/><g><path fill="rgb(0,142,214)" stroke="none" paint-order="stroke fill markers" fill-rule="evenodd" d=" M 13.125055313110352 3.9880033135414124 C 19.953744888305664 3.9880033135414124 23.010347366333008 9.112904489040375 23.010347366333008 14.192639827728271 C 23.010347366333008 18.667531967163086 19.819934844970703 24.60794496536255 13.527000427246094 31.849323570728302 C 13.49138069152832 31.884382367134094 13.441083908081055 31.924494683742523 13.395679473876953 31.955763339996338 C 13.350189208984375 31.924494683742523 13.299463272094727 31.884382367134094 13.263242721557617 31.849323570728302 C 13.263242721557617 31.849323570728302 12.73933219909668 31.247638821601868 12.73933219909668 31.247638821601868 C 8.633363723754883 26.537757992744446 3.0103378295898438 20.08662360906601 3.0103378295898438 14.192639827728271 C 3.0103378295898438 8.661246120929718 7.642190933227539 3.9880033135414124 13.125055313110352 3.9880033135414124 C 18.60800552368164 3.9880033135414124 13.125055313110352 3.9880033135414124 13.125055313110352 3.9880033135414124 M 13.125055313110352 1.9877568483352661 C 6.566045761108398 1.9877568483352661 1.0103111267089844 7.575370967388153 1.0103111267089844 14.192639827728271 C 1.0103111267089844 21.122595250606537 7.44890022277832 28.209525644779205 11.779830932617188 33.19103318452835 C 11.79648208618164 33.21061557531357 12.496173858642578 33.98791015148163 13.358943939208984 33.98791015148163 C 13.360918045043945 33.98791015148163 13.432243347167969 33.98791015148163 13.435161590576172 33.98791015148163 C 14.297416687011719 33.98791015148163 14.992731094360352 33.21061557531357 15.010412216186523 33.19103318452835 C 19.074838638305664 28.51810622215271 25.010374069213867 20.814014673233032 25.010374069213867 14.192639827728271 C 25.010374069213867 7.575370967388153 20.677383422851562 1.9877568483352661 13.125055313110352 1.9877568483352661 C 13.125055313110352 1.9877568483352661 13.125055313110352 1.9877568483352661 13.125055313110352 1.9877568483352661 Z M 12.999914169311523 9.999797284603119 C 15.20602035522461 9.999797284603119 16.999967575073242 11.794112801551819 16.999967575073242 13.999658524990082 C 16.999967575073242 16.205835938453674 15.25193977355957 18.043738067150116 13.045833587646484 18.043738067150116 C 10.840242385864258 18.043738067150116 8.999946594238281 16.205835938453674 8.999946594238281 13.999658524990082 C 8.999946594238281 11.794112801551819 10.794322967529297 9.999797284603119 12.999914169311523 9.999797284603119 C 15.20550537109375 9.999797284603119 12.999914169311523 9.999797284603119 12.999914169311523 9.999797284603119 M 13.045833587646484 8.043769121170044 C 9.732339859008789 8.043769121170044 7.045839309692383 10.73034679889679 7.045839309692383 14.043876826763153 C 7.045839309692383 17.357406854629517 9.732339859008789 20.043668687343597 13.045833587646484 20.043668687343597 C 16.35932731628418 20.043668687343597 19.045827865600586 17.357406854629517 19.045827865600586 14.043876826763153 C 19.045827865600586 10.73034679889679 16.35932731628418 8.043769121170044 13.045833587646484 8.043769121170044 C 13.045833587646484 8.043769121170044 13.045833587646484 8.043769121170044 13.045833587646484 8.043769121170044 Z"/></g></svg>