<svg xmlns="http://www.w3.org/2000/svg" viewBox="0 0 12 17" width="12" height="17">
	<style>
		tspan { white-space:pre }
		.shp0 { fill: #008ed6 } 
	</style>
	<g id="About long">
		<path id="Energy" class="shp0" d="M7.56 1.34L7.56 1.34M7.56 1.34L6.43 7.27L10.52 7.28L4.96 15.32L6.08 8.8L2 8.78L7.56 1.34M7.56 0.34C7.53 0.34 7.51 0.34 7.48 0.34C7.3 0.36 7.19 0.42 7.05 0.51C6.97 0.56 6.9 0.62 6.84 0.69C6.82 0.72 6.8 0.74 6.79 0.76L1.18 8.18C0.96 8.48 0.93 8.88 1.1 9.22C1.27 9.55 1.61 9.76 1.99 9.77L4.88 9.79L3.97 15.13C3.88 15.59 4.13 16.05 4.56 16.23C4.69 16.29 4.82 16.32 4.95 16.32C5.27 16.32 5.53 16.17 5.72 15.9L11.33 7.87C11.55 7.56 11.59 7.16 11.42 6.83C11.25 6.5 10.9 6.28 10.53 6.28L7.64 6.28L8.54 1.57C8.56 1.5 8.57 1.42 8.57 1.34C8.57 0.8 8.14 0.36 7.6 0.34C7.58 0.34 7.57 0.34 7.56 0.34L7.56 0.34Z" />
	</g>
</svg>