<svg xmlns="http://www.w3.org/2000/svg" viewBox="0 0 34 33" width="34" height="33">
	<style>
		tspan { white-space:pre }
		.shp0 { fill: #008ed6 } 
	</style>
	<g id="Features">
		<g id="Feature 3">
			<path id="Like" class="shp0" d="M20.01 32.98C10.92 32.98 10.85 32.61 9.72 31.76C9.13 31.31 8 31 3.89 30.73C3.59 30.71 3.3 30.6 3.11 30.37C3.02 30.26 0.97 27.26 0.97 22.46C0.97 17.73 2.44 15.57 2.5 15.47C2.69 15.18 3.01 15 3.35 15C6.73 15 11.41 10.69 14.56 3.16C15.11 1.86 15.22 1 17.22 1C18.36 1 19.63 1.81 20.26 2.86C21.55 4.99 20.9 9.58 20.29 12.03C22.35 12.01 26.09 11.99 27.86 11.99C30.33 11.99 31.97 13.46 32.02 15.61C32.03 16.32 31.94 17.23 31.74 17.7C32.28 18.24 32.98 19.06 33.01 20.12C33.05 21.48 32.16 22.51 31.59 23.11C31.72 23.5 31.98 24.03 31.96 24.65C31.89 26.19 30.7 27.19 29.96 27.71C30.02 28.13 30.07 28.92 29.94 29.54C29.4 32 25.8 32.98 20.01 32.98ZM4.42 28.7C8 29 9.92 29.4 10.93 30.16C11.71 30.75 11.59 30.98 20.01 30.98C22.58 30.98 27.6 30.88 27.98 29.11C28.14 28.41 27.39 27.72 27.39 27.71C27.19 27.21 27.41 26.62 27.91 26.41C27.92 26.4 29.91 25.69 29.96 24.57C29.99 23.86 29.5 23.43 29.49 23.41C29.2 22.96 29.3 22.34 29.74 22.03C29.75 22.03 31.04 21.24 31.01 20.17C30.99 19.32 29.87 18.73 29.83 18.71C29.58 18.56 29.4 18.32 29.35 18.03C29.29 17.75 29.35 17.45 29.53 17.22C29.53 17.22 30.04 16.42 30.02 15.66C29.98 14.04 28.24 13.99 27.86 13.99C25.34 13.99 18.86 14.01 18.86 14.01C18.51 14.01 18.21 13.85 18.02 13.57C17.83 13.29 17.82 12.94 17.93 12.62C18.91 9.81 19.45 5.4 18.55 3.89C18.28 3.44 18.22 3 17.22 3C17.08 3 16.75 3.11 16.41 3.93C13.06 11.92 8.07 16.55 3.98 16.97C3.63 17.77 2.97 19.44 2.97 22.46C2.97 25.54 3.95 27.93 4.42 28.7Z" />
		</g>
	</g>
</svg>