<svg xmlns="http://www.w3.org/2000/svg" viewBox="0 0 33 27" width="33" height="27">
	<style>
		tspan { white-space:pre }
		.shp0 { fill: #008ed6 } 
	</style>
	<g id="Features">
		<g id="Feature 1">
			<path id="Monitor" class="shp0" d="M31 2.99L31 19.99L3 19.99L3 2.99L31 2.99M31 0.99L3 0.99C1.9 0.99 1 1.89 1 2.99L1 19.99C1 21.09 1.9 21.99 3 21.99L31 21.99C32.1 21.99 33 21.09 33 19.99L33 2.99C33 1.89 32.1 0.99 31 0.99L31 0.99ZM18 21L18 25L23 25C23.55 25 24 25.45 24 26C24 26.55 23.55 27 23 27L11 27C10.45 27 10 26.55 10 26C10 25.45 10.45 25 11 25L16 25L16 21L18 21Z" />
		</g>
	</g>
</svg>