<svg xmlns="http://www.w3.org/2000/svg" viewBox="0 0 33 33" width="33" height="33">
	<style>
		tspan { white-space:pre }
		.shp0 { fill: #008ed6 } 
	</style>
	<g id="Features">
		<g id="Feature 2">
			<path id="Settings" class="shp0" d="M31.02 13.97L28.45 13.4C28.25 12.76 27.99 12.15 27.69 11.56L29.08 9.25C29.59 8.42 29.86 7.2 29.08 6.42L27.66 5C26.88 4.22 25.56 4.36 24.77 4.92L22.51 6.35C21.93 6.05 21.32 5.79 20.69 5.58L20.11 2.98C19.94 2.03 19.1 1 18 1L16 1C14.9 1 14.22 2.05 14 3L13.36 5.57C12.68 5.78 12.03 6.06 11.41 6.38L9.1 4.92C8.31 4.36 6.99 4.22 6.21 5L4.79 6.42C4.01 7.2 4.27 8.42 4.79 9.25L6.25 11.68C5.98 12.23 5.74 12.8 5.55 13.4L2.98 13.97C2.03 14.14 1 14.98 1 16.08L1 18.08C1 19.18 2.05 19.86 3 20.08L5.6 20.73C5.78 21.28 6 21.81 6.26 22.32L4.79 24.76C4.28 25.59 4.01 26.81 4.79 27.59L6.21 29C6.99 29.78 8.31 29.64 9.1 29.09L11.42 27.62C12.04 27.95 12.69 28.22 13.38 28.44L14.02 31C14.23 31.95 14.91 33 16.02 33L18.02 33C19.12 33 19.95 31.97 20.12 31.02L20.7 28.41C21.33 28.21 21.93 27.95 22.51 27.65L24.77 29.09C25.56 29.64 26.88 29.78 27.66 29L29.08 27.59C29.86 26.81 29.59 25.59 29.08 24.76L27.69 22.44C27.96 21.89 28.21 21.32 28.4 20.73L31 20.08C31.95 19.86 33 19.18 33 18.08L33 16.08C33 14.98 31.97 14.14 31.02 13.97ZM31 17.94C30.92 18 30.76 18.08 30.55 18.13L26.84 19.06L26.5 20.11C26.35 20.58 26.14 21.06 25.9 21.54L25.4 22.52L27.36 25.79C27.49 25.99 27.54 26.17 27.56 26.27L26.25 27.59C26.12 27.55 25.97 27.49 25.91 27.45L22.61 25.35L21.59 25.88C21.1 26.13 20.59 26.34 20.09 26.51L19 26.86L18.17 30.58C18.13 30.78 18.03 30.94 17.96 31L16.16 31C16.09 30.91 16.01 30.75 15.96 30.55L15.04 26.87L13.98 26.53C13.43 26.36 12.88 26.13 12.35 25.85L11.32 25.31L8.03 27.4C7.89 27.49 7.75 27.55 7.62 27.55L6.31 26.27C6.33 26.17 6.38 26 6.49 25.82L8.53 22.41L8.05 21.43C7.82 20.97 7.64 20.54 7.5 20.11L7.16 19.06L3.48 18.14C3.25 18.09 3.09 18 3 17.94L3 16.08C3 16.08 3 16.08 3 16.08C3.04 16.08 3.2 15.96 3.34 15.94L7.11 15.1L7.46 14C7.6 13.55 7.79 13.08 8.05 12.57L8.53 11.59L6.51 8.22C6.38 8.02 6.33 7.84 6.31 7.73L7.62 6.42C7.75 6.46 7.89 6.51 7.96 6.56L11.32 8.7L12.34 8.15C12.87 7.88 13.42 7.65 13.97 7.47L15.03 7.13L15.94 3.48C15.99 3.25 16.08 3.09 16.14 3L18 3C17.99 3.02 18.12 3.19 18.14 3.34L18.98 7.13L20.07 7.48C20.58 7.65 21.09 7.86 21.59 8.12L22.62 8.66L25.84 6.6C25.97 6.51 26.12 6.46 26.25 6.46L27.56 7.73C27.54 7.84 27.49 8.01 27.38 8.19L25.4 11.48L25.91 12.47C26.18 13 26.39 13.5 26.54 14L26.89 15.1L30.58 15.92C30.81 15.96 30.98 16.09 31.02 16.16L31 17.94ZM17.01 23.01C13.69 23.01 10.99 20.31 10.99 17C10.99 13.69 13.69 10.99 17.01 10.99C20.33 10.99 23.04 13.69 23.04 17C23.04 20.31 20.33 23.01 17.01 23.01ZM17 13C14.79 13 13 14.79 13 17C13 19.21 14.79 21 17 21C19.21 21 21 19.21 21 17C21 14.79 19.21 13 17 13Z" />
		</g>
	</g>
</svg>