<svg xmlns="http://www.w3.org/2000/svg" viewBox="0 0 20 33" width="20" height="33">
	<style>
		tspan { white-space:pre }
		.shp0 { fill: #008ed6 } 
	</style>
	<g id="Features">
		<g id="Feature 4">
			<path id="Phone" class="shp0" d="M16 3C16.55 3 17 3.45 17 4L17 30C17 30.55 16.55 31 16 31L3.99 31C3.44 31 2.99 30.55 2.99 30L2.99 4C2.99 3.45 3.44 3 3.99 3L16 3M16 1L3.99 1C2.34 1 0.99 2.34 0.99 4L0.99 30C0.99 31.66 2.34 33 3.99 33L16 33C17.66 33 19 31.66 19 30L19 4C19 2.34 17.66 1 16 1L16 1ZM8 28C8 29.1 8.9 29.99 10 29.99C11.1 29.99 12 29.1 12 28C12 26.9 11.1 26.01 10 26.01C8.9 26.01 8 26.9 8 28ZM8 4L12 4C12.55 4 13 4.45 13 5C13 5.55 12.55 6 12 6L8 6C7.45 6 7 5.55 7 5C7 4.45 7.45 4 8 4Z" />
		</g>
	</g>
</svg>